<svg version="1.1" id="Layer_1" xmlns="http://www.w3.org/2000/svg" xmlns:xlink="http://www.w3.org/1999/xlink" x="0px" y="0px"
	 width="100%" viewBox="0 0 1000 1000" enable-background="new 0 0 1000 1000" xml:space="preserve">
<path fill="#FFFFFF" opacity="1.000000" stroke="none" 
	d="
M458.000000,1001.000000 
	C305.333344,1001.000000 153.166672,1001.000000 1.000000,1001.000000 
	C1.000000,667.666687 1.000000,334.333344 1.000000,1.000000 
	C334.333344,1.000000 667.666687,1.000000 1001.000000,1.000000 
	C1001.000000,334.333344 1001.000000,667.666687 1001.000000,1001.000000 
	C820.166687,1001.000000 639.333313,1001.000000 458.000000,1001.000000 
M535.613892,851.105652 
	C545.057617,843.719421 554.541382,836.383667 563.938171,828.938171 
	C607.404419,794.498352 651.267273,760.531921 692.079651,722.890320 
	C713.609314,703.033142 733.162231,681.479736 747.160583,655.493408 
	C774.469299,604.798279 778.323792,551.258118 765.631348,495.951263 
	C755.329834,451.062286 735.405823,410.385803 709.996521,372.276459 
	C686.110291,336.451233 658.556396,303.439667 630.453613,270.936371 
	C593.091064,227.723236 555.125244,185.031647 517.399048,142.133118 
	C512.053528,136.054764 506.598328,130.072937 500.701904,123.497856 
	C499.662506,124.867447 499.021454,125.838272 498.257599,126.700287 
	C480.695526,146.520264 462.877350,166.119308 445.596191,186.181000 
	C406.254364,231.852966 366.778137,277.419220 328.115601,323.663086 
	C297.767700,359.961945 271.849365,399.275909 253.550476,443.190277 
	C237.423767,481.891785 227.870285,521.909180 229.795273,564.189331 
	C232.028244,613.234375 249.322281,656.239929 281.293396,693.414062 
	C303.886871,719.684509 330.254486,741.957642 356.969391,763.739258 
	C394.268494,794.150574 432.128693,823.874268 469.786377,853.845032 
	C480.054199,862.016907 490.456696,870.019592 501.011536,878.267273 
	C512.557434,869.209229 523.808716,860.382324 535.613892,851.105652 
z"/>
<path fill="#69BD3F" opacity="1.000000" stroke="none" 
	d="
M535.336914,851.330566 
	C523.808716,860.382324 512.557434,869.209229 501.011536,878.267273 
	C490.456696,870.019592 480.054199,862.016907 469.786377,853.845032 
	C432.128693,823.874268 394.268494,794.150574 356.969391,763.739258 
	C330.254486,741.957642 303.886871,719.684509 281.293396,693.414062 
	C249.322281,656.239929 232.028244,613.234375 229.795273,564.189331 
	C227.870285,521.909180 237.423767,481.891785 253.550476,443.190277 
	C271.849365,399.275909 297.767700,359.961945 328.115601,323.663086 
	C366.778137,277.419220 406.254364,231.852966 445.596191,186.181000 
	C462.877350,166.119308 480.695526,146.520264 498.257599,126.700287 
	C499.021454,125.838272 499.662506,124.867447 500.701904,123.497856 
	C506.598328,130.072937 512.053528,136.054764 517.399048,142.133118 
	C555.125244,185.031647 593.091064,227.723236 630.453613,270.936371 
	C658.556396,303.439667 686.110291,336.451233 709.996521,372.276459 
	C735.405823,410.385803 755.329834,451.062286 765.631348,495.951263 
	C778.323792,551.258118 774.469299,604.798279 747.160583,655.493408 
	C733.162231,681.479736 713.609314,703.033142 692.079651,722.890320 
	C651.267273,760.531921 607.404419,794.498352 563.938171,828.938171 
	C554.541382,836.383667 545.057617,843.719421 535.336914,851.330566 
M454.144836,345.609436 
	C435.313507,351.661835 418.255676,360.977783 404.050446,374.759521 
	C368.603363,409.149872 359.976410,451.279205 369.717255,498.264893 
	C374.049683,519.162659 385.396118,536.649353 398.160065,553.270081 
	C405.150177,562.372314 410.498199,571.718994 411.430878,583.814331 
	C412.250885,594.448364 417.453979,602.286682 431.862549,601.945374 
	C458.174194,601.322144 484.510925,601.758667 510.837189,601.753052 
	C533.164551,601.748352 555.491943,601.778320 577.819153,601.723633 
	C588.390503,601.697754 594.728943,596.723877 596.943481,586.428528 
	C597.739929,582.725708 597.973816,578.824158 597.892212,575.025635 
	C597.693481,565.786926 600.416992,557.726990 606.286621,550.566101 
	C610.077576,545.941284 614.007568,541.296448 616.953918,536.134705 
	C639.143860,497.260498 642.444092,456.644379 625.893127,415.107758 
	C611.299316,378.482880 584.373352,354.408447 546.481995,343.478546 
	C515.920349,334.662964 485.248993,336.067261 454.144836,345.609436 
M587.819275,662.536438 
	C597.340271,655.519836 600.140198,641.044373 594.241272,629.640686 
	C591.296204,623.947327 586.761780,620.888428 580.288208,620.891602 
	C529.999451,620.916504 479.710663,620.963623 429.421875,620.956726 
	C421.878693,620.955627 416.383362,624.415100 413.925568,631.282349 
	C412.295776,635.836182 411.311829,641.082458 411.790955,645.842407 
	C413.177673,659.619324 419.282562,664.715881 433.042023,664.709900 
	C481.498962,664.688843 529.955994,664.645996 578.412598,664.494141 
	C581.324402,664.485046 584.232971,663.453430 587.819275,662.536438 
M521.756714,725.337097 
	C544.425232,719.473816 555.270691,703.103394 560.911499,681.742554 
	C523.332275,681.742554 486.168365,681.742554 448.969635,681.742554 
	C449.997925,699.356567 465.231781,718.288940 482.558411,724.005676 
	C495.202026,728.177307 508.027313,728.414917 521.756714,725.337097 
z"/>
<path fill="#FEFFFE" opacity="1.000000" stroke="none" 
	d="
M454.518311,345.466217 
	C485.248993,336.067261 515.920349,334.662964 546.481995,343.478546 
	C584.373352,354.408447 611.299316,378.482880 625.893127,415.107758 
	C642.444092,456.644379 639.143860,497.260498 616.953918,536.134705 
	C614.007568,541.296448 610.077576,545.941284 606.286621,550.566101 
	C600.416992,557.726990 597.693481,565.786926 597.892212,575.025635 
	C597.973816,578.824158 597.739929,582.725708 596.943481,586.428528 
	C594.728943,596.723877 588.390503,601.697754 577.819153,601.723633 
	C555.491943,601.778320 533.164551,601.748352 510.837189,601.753052 
	C484.510925,601.758667 458.174194,601.322144 431.862549,601.945374 
	C417.453979,602.286682 412.250885,594.448364 411.430878,583.814331 
	C410.498199,571.718994 405.150177,562.372314 398.160065,553.270081 
	C385.396118,536.649353 374.049683,519.162659 369.717255,498.264893 
	C359.976410,451.279205 368.603363,409.149872 404.050446,374.759521 
	C418.255676,360.977783 435.313507,351.661835 454.518311,345.466217 
z"/>
<path fill="#FCFEFB" opacity="1.000000" stroke="none" 
	d="
M587.481201,662.717041 
	C584.232971,663.453430 581.324402,664.485046 578.412598,664.494141 
	C529.955994,664.645996 481.498962,664.688843 433.042023,664.709900 
	C419.282562,664.715881 413.177673,659.619324 411.790955,645.842407 
	C411.311829,641.082458 412.295776,635.836182 413.925568,631.282349 
	C416.383362,624.415100 421.878693,620.955627 429.421875,620.956726 
	C479.710663,620.963623 529.999451,620.916504 580.288208,620.891602 
	C586.761780,620.888428 591.296204,623.947327 594.241272,629.640686 
	C600.140198,641.044373 597.340271,655.519836 587.481201,662.717041 
z"/>
<path fill="#FCFEFA" opacity="1.000000" stroke="none" 
	d="
M521.363525,725.469482 
	C508.027313,728.414917 495.202026,728.177307 482.558411,724.005676 
	C465.231781,718.288940 449.997925,699.356567 448.969635,681.742554 
	C486.168365,681.742554 523.332275,681.742554 560.911499,681.742554 
	C555.270691,703.103394 544.425232,719.473816 521.363525,725.469482 
z"/>
</svg>